<?xml version="1.0"?>
<svg version="1.1" id="圖層_1" xmlns="http://www.w3.org/2000/svg" x="0" y="0" viewBox="0 0 100 100" xml:space="preserve"><g><path d="M55.2 45.5L27.7 73l.1.1c2.3 2.3 2.3 6.1 0 8.5-2.3 2.3-6.1 2.3-8.5 0l-.1-.1-4 4 2.5 2.5c2.8 2.8 7.2 2.8 10 0l37-37c-3.6-1-6.9-2.9-9.5-5.5z" fill="#e0e0e0"/><path d="M19.3 73.1c2.3-2.3 6.1-2.3 8.4-.1l27.6-27.6c-2.6-2.6-4.5-5.9-5.4-9.5L12.8 73c-2.8 2.8-2.8 7.2 0 10l2.5 2.5 4-4a5.8 5.8 0 0 1 0-8.4z" fill="#aaa"/></g><g><path d="M87.7 38.7h-24c-.4 0-.7-.4-.5-.8l.6-1.1-6 6-2.7 2.7c2.6 2.6 5.8 4.5 9.5 5.5 1.7.4 3.5.7 5.3.7 8.1 0 15.2-4.7 18.6-11.5.5-.7 0-1.5-.8-1.5z" fill="#666"/><path d="M87.7 22.9c.7 0 1.2-.8.9-1.5-1-2-2.4-3.8-3.9-5.4-3.8-3.7-9-6-14.7-6-11.5 0-20.8 9.3-20.8 20.8 0 1.8.2 3.5.7 5.1.9 3.7 2.8 6.9 5.4 9.5l2.7-2.7 6-6 7.4-13.4c.2-.3.5-.5.9-.5h5.6l9.8.1z" fill="#333"/></g><metadata xmlns:d="https://loading.io/stock/"><d:name>wrench,tool,machine,tweak,config,setting,nuts,cap,screw,bolt</d:name><d:tags>rf,wrench,tool,machine,tweak,config,setting,nuts,cap,screw,bolt</d:tags><d:license>by</d:license><d:slug>mbzok7</d:slug></metadata></svg>