<?xml version="1.0"?><svg version="1.1" id="圖層_1" xmlns="http://www.w3.org/2000/svg" x="0" y="0" viewBox="0 0 100 100" xml:space="preserve"><path d="M48.811 30.024c1.313 0 2.44-.773 2.978-1.883.211-.437.34-.92.34-1.436V15.724c0-.096-.02-.187-.028-.281-.145-1.697-1.557-3.038-3.29-3.038a3.323 3.323 0 0 0-3.319 3.318v9.962c.364.946.581 1.958.669 2.997a3.305 3.305 0 0 0 2.65 1.342z" fill="#f5e6c8"/><path d="M41.061 21.235c.359.008.68.089.968.202V14.281a3.323 3.323 0 0 0-3.319-3.319 3.324 3.324 0 0 0-3.319 3.319v9.833l3.694-2.239c.406-.245 1.072-.641 1.976-.64z" fill="#f5e6c8"/><path d="M58.57 31.776a3.323 3.323 0 0 0 3.319-3.319V17.476a3.323 3.323 0 0 0-3.319-3.318c-1.313 0-2.44.773-2.978 1.882v10.666c0 .708-.11 1.39-.312 2.032.145 1.697 1.557 3.038 3.29 3.038z" fill="#f5e6c8"/><path d="M68.67 38.104a6.788 6.788 0 0 1-6.222-4.092 6.74 6.74 0 0 1-3.878 1.226 6.777 6.777 0 0 1-5.697-3.116 6.736 6.736 0 0 1-4.063 1.365 6.733 6.733 0 0 1-3.044-.73 13.83 13.83 0 0 1-2.198 4.459c1.282.285 2.44.75 3.369 1.167 4.226 1.896 7.369 4.442 9.341 7.567 2.477 3.923 2.865 8.658 1.012 12.357l-3.095-1.551c1.292-2.581.96-6.097-.845-8.957-1.603-2.538-4.237-4.644-7.831-6.257-2.296-1.029-4.037-1.346-5.485-.999l-2.114.51c-1.27.307-2.08-1.316-1.071-2.147l1.68-1.384c2.12-1.746 3.558-3.945 4.046-6.191.041-.189.063-.38.089-.571.049-.347.078-.695.081-1.041a7.53 7.53 0 0 0-.716-3.3c-.045-.094-.083-.191-.132-.282a5.89 5.89 0 0 0-.951-1.312l-.018-.018-.046.028-4.535 2.749-2.996 1.816-3.341 2.025c-.681.414-1.529.928-1.808 1.517-.225.475-.198 1.246-.176 1.926l.325 9.656c.087 2.579.252 4.845 1.402 6.45.791 1.105 2.089 1.933 3.345 2.734l4.48 2.86c3.698 2.362 4.571 4.625 4.472 6.352h26.673a21.698 21.698 0 0 1 1.183-3.534c.131-.302.269-.601.408-.899.326-.702.632-1.365.818-2.021.33-1.167.327-2.523.322-3.833L71.4 37.526a6.741 6.741 0 0 1-2.73.578z" fill="#f5e6c8"/><path d="M68.67 17.023a3.323 3.323 0 0 0-3.319 3.319v10.981a3.323 3.323 0 0 0 3.319 3.319 3.324 3.324 0 0 0 3.319-3.319V20.341a3.323 3.323 0 0 0-3.319-3.318z" fill="#f5e6c8"/><path d="M37.577 56.569l-4.48-2.86c-1.256-.8-2.553-1.629-3.345-2.734-1.15-1.605-1.315-3.871-1.402-6.45l-.325-9.656c-.023-.681-.05-1.452.176-1.926.28-.589 1.127-1.104 1.808-1.517l3.341-2.025 2.996-1.816 4.535-2.749.046-.028.018.018c.372.382.689.826.951 1.312.049.091.087.189.132.282.474.99.725 2.13.716 3.3a7.933 7.933 0 0 1-.081 1.041c-.027.19-.048.381-.089.571-.488 2.245-1.925 4.445-4.046 6.191l-1.68 1.384c-1.009.831-.199 2.453 1.071 2.147l2.114-.51c1.449-.347 3.189-.03 5.485.999 3.594 1.613 6.228 3.719 7.831 6.257 1.806 2.86 2.137 6.376.845 8.957l3.095 1.551c1.853-3.698 1.464-8.434-1.012-12.357-1.973-3.125-5.115-5.671-9.341-7.567-.929-.417-2.088-.882-3.369-1.167a13.83 13.83 0 0 0 2.198-4.459c.917.463 1.949.73 3.044.73a6.736 6.736 0 0 0 4.063-1.365 6.775 6.775 0 0 0 5.697 3.116 6.74 6.74 0 0 0 3.878-1.226c1.044 2.404 3.439 4.092 6.222 4.092.971 0 1.894-.209 2.73-.579l.053 15.109c.005 1.31.008 2.666-.322 3.833-.186.656-.493 1.319-.818 2.021-.139.299-.277.597-.408.899a21.794 21.794 0 0 0-1.183 3.534h3.591c.214-.73.461-1.451.766-2.152.121-.276.248-.551.375-.825.367-.793.748-1.614 1.009-2.534.463-1.634.458-3.31.453-4.787l-.063-17.986-.273.001a6.73 6.73 0 0 0 .872-3.315V20.341a6.789 6.789 0 0 0-6.781-6.781 6.74 6.74 0 0 0-3.878 1.226c-1.044-2.404-3.439-4.092-6.222-4.092a6.736 6.736 0 0 0-4.063 1.365 6.775 6.775 0 0 0-5.697-3.116c-1.688 0-3.23.624-4.418 1.648A6.776 6.776 0 0 0 38.711 7.5a6.789 6.789 0 0 0-6.781 6.781v10.982c0 .309.028.611.068.91l-3.784 2.294c-1.02.619-2.417 1.465-3.142 2.994-.585 1.237-.54 2.561-.507 3.527l.325 9.656c.082 2.431.194 5.76 2.047 8.348 1.18 1.649 2.837 2.705 4.297 3.637l4.48 2.86c.963.615 3.125 2.161 2.838 3.432h3.497c.099-1.727-.774-3.99-4.472-6.352zm27.775-28.112v-8.116a3.323 3.323 0 0 1 3.319-3.319 3.324 3.324 0 0 1 3.319 3.319v10.981a3.323 3.323 0 0 1-3.319 3.319 3.323 3.323 0 0 1-3.319-3.319v-2.865zm-9.76-1.751V16.04a3.314 3.314 0 0 1 2.978-1.882 3.323 3.323 0 0 1 3.319 3.318v10.981a3.323 3.323 0 0 1-3.319 3.319c-1.733 0-3.145-1.341-3.29-3.038a6.757 6.757 0 0 0 .312-2.032zm-10.1-1.443v-9.539a3.323 3.323 0 0 1 3.319-3.318c1.733 0 3.145 1.341 3.29 3.038.008.094.028.185.028.281v10.981c0 .517-.129 1-.34 1.436a3.315 3.315 0 0 1-2.978 1.883 3.306 3.306 0 0 1-2.65-1.342 10.906 10.906 0 0 0-.669-2.997v-.423zm-10.1-10.982a3.323 3.323 0 0 1 3.319-3.319 3.323 3.323 0 0 1 3.319 3.319V21.437a2.797 2.797 0 0 0-.968-.202c-.904-.001-1.57.395-1.975.64l-3.694 2.239v-9.833z"/><path fill="#849b87" d="M35.917 75.5v17h39.535V62.921H35.917v2.505z"/><metadata xmlns:d="https://loading.io/stock/">
<d:name>fist,punch,attack,hands up,boxing</d:name>
<d:tags>cc-by,fist,punch,attack,hands up,boxing</d:tags>
<d:license>by</d:license>
<d:slug>ha30uq</d:slug>
</metadata></svg>